<svg width="9" height="13" viewBox="0 0 9 13" fill="none" xmlns="http://www.w3.org/2000/svg">
<path d="M7.16686 13C7.52043 13 7.85954 12.8629 8.10959 12.6189C8.35957 12.3748 8.5 12.0438 8.5 11.6987C8.5 11.3535 8.35957 11.0225 8.10959 10.7784L5.05204 7.79377L3.83357 6.50814L5.05204 5.19052L8.10959 2.20588C8.35249 1.96039 8.48689 1.6316 8.48385 1.29032C8.48081 0.949035 8.34058 0.62257 8.09335 0.381238C7.84612 0.139906 7.51168 0.00301486 7.16206 4.92047e-05C6.81244 -0.00291645 6.47561 0.128281 6.22412 0.365383L0.89041 5.57189C0.64043 5.81598 0.5 6.147 0.5 6.49214C0.5 6.83729 0.64043 7.1683 0.89041 7.41239L6.22412 12.6189C6.47418 12.8629 6.81328 13 7.16686 13Z" fill="white"/>
</svg>
