<svg width="14" height="14" viewBox="0 0 14 14" fill="none" xmlns="http://www.w3.org/2000/svg">
<path fill-rule="evenodd" clip-rule="evenodd" d="M0.43934 0.43934C1.02513 -0.146447 1.97487 -0.146447 2.56066 0.43934L6.64348 4.52216L10.7263 0.43934C11.3121 -0.146447 12.2618 -0.146447 12.8476 0.43934C13.4334 1.02513 13.4334 1.97487 12.8476 2.56066L8.7648 6.64348L12.8476 10.7263C13.4334 11.3121 13.4334 12.2618 12.8476 12.8476C12.2618 13.4334 11.3121 13.4334 10.7263 12.8476L6.64348 8.7648L2.56066 12.8476C1.97487 13.4334 1.02513 13.4334 0.43934 12.8476C-0.146447 12.2618 -0.146447 11.3121 0.43934 10.7263L4.52216 6.64348L0.43934 2.56066C-0.146447 1.97487 -0.146447 1.02513 0.43934 0.43934Z" fill="white"/>
</svg>
